<?xml version="1.0" encoding="utf-8"?>
<!-- Generator: Adobe Adobe Illustrator 24.2.0, SVG Export Plug-In . SVG Version: 6.00 Build 0)  -->
<svg version="1.1" id="Layer_1" xmlns="http://www.w3.org/2000/svg" xmlns:xlink="http://www.w3.org/1999/xlink" x="0px" y="0px"
	 width="3000px" height="3000px" viewBox="0 0 3000 3000" style="enable-background:new 0 0 3000 3000;" xml:space="preserve">
<style type="text/css">
	.st0{fill:#0077FF;stroke:#FFFFFF;stroke-miterlimit:10;}
	.st1{fill:#00FF90;stroke:#FFFFFF;stroke-miterlimit:10;}
	.st2{opacity:0.4392;fill:#2B9466;stroke:#FFFFFF;stroke-miterlimit:10;}
	.st3{opacity:0.1216;fill:#322B94;stroke:#FFFFFF;stroke-miterlimit:10;}
</style>
<rect class="st0" width="3000" height="3000"/>
<path class="st0" d="M39.64,2080.5c66.5-75.39,181.59-87.01,279.8-65.53s188.6,69.74,285.67,95.87
	c165.93,44.67,341.6,22.65,511.99,0.33c88.38-11.58,176.75-23.15,265.13-34.73"/>
<path class="st1" d="M-31.02,1790.45c119.39-129.95,332.6-91.86,494.7-22.11s336.52,163.09,505.08,110.87
	c135.11-41.86,228.29-168.62,359.23-222.13c200.15-81.79,421.05,25.05,626.15,93.5c345.91,115.44,727.84,120.14,1076.48,13.25
	c-69.06,375.47-67.03,763.89,5.95,1138.62c10.79,55.39,22.55,115.54-2.65,166.03c-43.96,88.1-165.83,92.42-264.03,85.19
	c-1051.96-77.4-2112.2-41.69-3156.57,106.32C-364.54,2760.21-390.8,2182.06-31.02,1790.45z"/>
<path class="st2" d="M2723.54,2780.35c36.37-294.68,112.7-584.4,226.23-858.74c-13.23,104.92,2.99,213.4,46.35,309.86
	c12.96,28.84,36.43,61.03,67.69,56.27c26.82-4.09,41.16-33.04,51.09-58.29c31.18-79.25,62.35-158.51,93.53-237.76
	c13.95-35.47,42.84-78.51,78.88-66.1c21.51,7.41,31.43,31.74,37.62,53.63c58.26,205.91,13.96,425.24-30.57,634.55
	c-18.41,86.56-36.83,173.13-55.24,259.69c-7.95,37.37-17.65,77.72-47.22,101.92c-32.18,26.33-78.26,25.61-119.46,20.07
	c-127.41-17.13-250.09-68.28-351.94-146.72c-18.95,6.97-37.91,13.93-56.86,20.9C2665.68,2851.37,2667.7,2833.11,2723.54,2780.35z"/>
<path class="st2" d="M2666.18,2183.32c-170.14-53.65-372.72,78.37-392.35,255.68c-590.26-181.26-1243.2-150.72-1813.96,84.87
	c142.75,101.72,338.68,35.46,503.21-24.98s375.8-101.35,492.91,29.07c70.17,78.14,91.9,206.59,190.08,243.88
	c86.84,32.98,177.91-26.81,259.7-70.85c201.89-108.7,449.29-129.32,666.38-55.53c57.45-98.08,36.76-235.05-47.09-311.79
	C2585.03,2281.32,2674.28,2265.06,2666.18,2183.32z"/>
<path class="st2" d="M1568.99,1945.59c-127.98,28.64-255.95,57.28-383.93,85.92c37.1,25.35,87.69,9.81,127.84-10.37
	c40.15-20.19,83.06-45.14,127.03-35.89c47.21,9.93,76.77,55.01,110.57,89.43c61.47,62.59,148.1,95.54,235,107.57
	c86.9,12.03,175.18,4.92,262.62-2.2c18.86-14.93,37.72-29.87,56.58-44.8c-145.02-99.17-290.05-198.34-435.07-297.5
	C1657.59,1859.75,1666.25,1923.82,1568.99,1945.59z"/>
<path class="st2" d="M750.2,1965.51c-164.24,57.15-336.01,92.6-509.46,105.14c-59.16,4.28-123.02,4.69-172.18-28.5
	c-31.39-21.19-53.1-53.82-81.77-78.57s-71.18-41.18-104.06-22.39c4.83,62.57,24.25,123.97,56.27,177.95
	c82.41-30.25,156.24-83.52,210.93-152.2c-18.72,32.04-37.73,64.8-45.25,101.14c-7.52,36.34-1.66,77.54,24.18,104.17
	c38.53,39.72,102.79,33.4,157.34,24.15c94.94-16.1,189.89-32.19,284.83-48.29c29.61,52.58,103.16,74.77,156.91,47.34
	C781.7,2168.01,806.89,2095.44,750.2,1965.51z"/>
<path class="st2" d="M75.13,2439.39c-83.01,87.84-167.19,177.32-221.63,285.21s-75.9,238.78-28.6,350
	c21.41-29.52,42.81-59.05,64.22-88.57c-8.5,38.89-16.96,79.73-5.9,117.97s48.73,71.95,87.74,64.01
	c26.42-5.37,45.68-27.21,65.24-45.76c59.12-56.04,138.19-90.6,219.48-95.91c50.7-3.31,102.75,4.23,151.69-9.44
	c48.94-13.67,95.14-59.09,85.66-109c-8.9-46.81-60.31-72.34-107.21-80.8s-97.47-7.85-138.02-32.89
	c-40.55-25.03-60.26-90.84-21.9-119.11c-56.73,17.25-121.13,7.12-169.82-26.72c-28.14-52.28-18.69-122.19,22.33-165.12
	S188.82,2427.71,75.13,2439.39z"/>
<path class="st2" d="M991.05,2872.84c291.14,27.57,571.43,158.66,779.23,364.44c-93.67,10.66-183.3-34.45-270.38-70.58
	c-223.42-92.68-468.77-131.99-709.96-113.74c29.81-80.65,60.19-162.38,110.16-232.36C950.08,2750.63,1022.89,2692.63,991.05,2872.84
	z"/>
<path class="st3" d="M485.44,482.69c-60.28-50.52-120.57-101.04-180.85-151.56c83.73,130.61,226.21,221.92,379.86,243.44
	c-78.5-27.63-136.86-105.05-141.82-188.11c93.93,83.02,91.25,251.08-5.28,331.06c31.43-72.37,62.86-144.74,94.28-217.11
	c-26.79-13.38-58.19-17.32-87.45-10.97c-17.92-47.85-35.84-95.7-53.76-143.56C497.63,456.67,596.69,575.92,485.44,482.69z"/>
<path class="st3" d="M2657.13,381.35c-35.84,44.12-71.69,88.24-107.53,132.36c37.39,3.26,75.89-15.75,96.02-47.43
	c-33.7,52.9-67.39,105.81-101.09,158.71C2556.37,615.45,2574.38,614.48,2657.13,381.35z"/>
<path class="st3" d="M1745.05,448.83c-44.79-34.36-105.27-47.36-160.21-34.43c-8.38-32.81-53.56-49.33-81.13-29.67
	c9.11-16.65-23.39-33.46-31.72-16.41C1474.73,390.48,1491.38,410.28,1745.05,448.83z"/>
<path class="st3" d="M1386.54,926.88c-60.61,16.81-121.22,33.61-181.82,50.42C1292.48,967.19,1381.82,970.87,1386.54,926.88z"/>
<path class="st3" d="M2149.14,1107.11c17.93,58.52,68.33,105.92,127.84,120.24"/>
<path class="st3" d="M2156.66,692.01c21.03-38.04,42.07-76.08,63.11-114.12"/>
<path class="st3" d="M623.71,1282.17c2.3-18.13,36.91-13.82,34.69,4.33l2082.15-273.91"/>
<path class="st3" d="M1552.22,1286.81c-9.52-9.52-19.04-19.04-28.57-28.57"/>
<path class="st3" d="M1034.65,515.85c88.56,49.3,214.95,8.7,258.23-82.96c-45.94,52.63-66.13,126.74-53.24,195.39
	C1296.17,618.19,1348.75,587.37,1034.65,515.85z"/>
<path class="st3" d="M1752.18,738.35c58.99-68.8,127.38-129.54,202.67-179.98C1946.25,581.57,1954.62,609.96,1752.18,738.35z"/>
<path class="st3" d="M1952.59,995.88c82.89-83.3,165.79-166.6,248.68-249.9C2240.54,811.74,2279.81,877.49,1952.59,995.88z"/>
<path class="st3" d="M1198.1,981.68c-120.13-15.21-240.26-30.42-360.38-45.63c-21.91-2.77-45.23-6.16-61.86-20.68
	c-34.01-29.69-21.2-84.78-34.91-127.8c-22.87-71.72-120.73-94.97-189.37-64.06s-113.2,97.69-151.13,162.72
	c14.48-7.4,28.96-14.8,43.44-22.2"/>
<path class="st3" d="M832.37,1063.99c-107.85,63.27-207.02,141.31-293.88,231.24c6.66,22.89,36.08,30.43,59.64,26.76
	c23.56-3.67,46.34-14.46,70.11-12.55c35.7,2.86,62.89,33.41,79.93,64.92s28.47,66.76,52.49,93.34
	c24.01,26.58,67.03,41.36,95.83,20.05l301.53,136.13l302.8-182.82l679.86-417.06l519.89-274.23"/>
<path class="st3" d="M2550.7,373.23c-35.05-90.11-89.22-172.74-157.88-240.82c-7.3,10.88-14.59,21.76-21.89,32.64
	C2310.91,119.63,2232.35,99.52,2550.7,373.23z"/>
<path class="st3" d="M1999.1,310.12c-145.44-61.99-312.14-96.75-461.2-44.06s-266,215.71-223.98,368.12"/>
<path class="st3" d="M1169.44,886.89c47.61-24.76,95.22-49.51,195.32-88.39c175.74-62.47,363.28-91.55,549.68-85.23
	c-10.29,90.25-20.57,180.49-30.86,270.74"/>
<path class="st3" d="M2393.31,1201.59c-22.08,58.24-23.5,124.09-3.94,183.23l82.66,27.68l171.39-119.98l28.57-251.38l211.39-308.51"
	/>
<path class="st3" d="M2860.1,579.43c-32.97-193.73-233.46-342.87-428.49-318.73"/>
<path class="st3" d="M1947.04,144.62c-66.95,95.56-120.42,200.55-158.34,310.89C1801.25,454.57,1813.81,453.64,1947.04,144.62z"/>
<path class="st3" d="M1437.25,665.75c-161.27,28.36-328.1,24.72-559.58-61.53c-271.76-12.59-545.12,133.99-685.03,367.31
	l45.57,309.56"/>
<path class="st3" d="M292.8,1366.63c4.17,84.02,40.01,166.08,98.8,226.25C403.31,1578.46,415.02,1564.05,292.8,1366.63z"/>
<path class="st3" d="M723.16,1586.26c-68.52-19.17-137.04-38.34-187.87-2.37C516.24,1549.61,497.2,1515.33,723.16,1586.26z"/>
<path class="st3" d="M478.16,1681.01c17.14-72.37,34.28-144.73,51.42-217.1"/>
<path class="st3" d="M673.1,944.2c12.37-47.36,24.73-94.73,37.1-142.09l133.6-160.88"/>
<path class="st3" d="M744.07,434.31C807.93,300.58,871.78,166.84,935.63,33.1c-12.79,64.28-11.45,131.34,3.89,195.06
	C1014.71,225.92,1087.59,183.9,744.07,434.31z"/>
<path class="st3" d="M2288.15,488.08c-63.03-60.75-126.06-121.5-189.09-182.24"/>
<path class="st3" d="M1965.39,389.99c-71.47,22.2-148.43-7.08-214.08-43s-129.98-79.92-204.16-89.86
	c-74.18-9.94-162.23,29.41-174.69,103.21c0.17-80.65,0.34-161.31,0.51-241.96c27.38,39.07,54.76,78.15,82.13,117.22"/>
<path class="st3" d="M2260.65,1126.84c36.18,85.7,72.37,171.39,108.55,257.09l-182.82,119.98"/>
<path class="st3" d="M2037.95,1647.12c-65.11,18.72-140.18-3.65-184.43-54.95c-38.07,25.92-67.33,64.53-82,108.19
	C1811.09,1676.28,1844.18,1641.66,2037.95,1647.12z"/>
<path class="st3" d="M1912.15,1326.8c-20.95,26.66-41.9,53.32-62.84,79.98"/>
</svg>
