<?xml version="1.0" encoding="utf-8"?>
<!-- Generator: Adobe Adobe Illustrator 24.2.0, SVG Export Plug-In . SVG Version: 6.00 Build 0)  -->
<svg version="1.1" id="Layer_1" xmlns="http://www.w3.org/2000/svg" xmlns:xlink="http://www.w3.org/1999/xlink" x="0px" y="0px"
	 width="1080px" height="1080px" viewBox="0 0 1080 1080" style="enable-background:new 0 0 1080 1080;" xml:space="preserve">
<style type="text/css">
	.st0{fill:#DEAB4D;}
	.st1{fill:#8B6A2A;}
	.st2{fill:#DDF334;}
	.st3{fill:#5AC148;}
	.st4{fill:#DE5A4E;}
	.st5{fill:#EFBC5A;}
</style>
<path class="st0" d="M281.19,658.51c-6.79,48.48-13.58,96.96-20.37,145.45c-1.21,8.64-2.37,17.74,0.87,25.83
	c4.25,10.63,15.01,17,25.29,22.04c56.65,27.75,120.36,38.66,183.42,40.16c63.06,1.49,125.95-6.08,188.57-13.65
	c25.96-3.14,51.91-6.27,77.87-9.41c51.75-6.25,103.5-12.5,155.25-18.76c8.76-1.06,18.79-2.92,23.14-10.6
	c3.63-6.41,1.79-14.39-0.14-21.5c-12.16-44.75-24.31-89.51-36.47-134.26c-2.55-9.41-5.52-19.46-13.12-25.56
	c-8.35-6.71-20.02-6.87-30.73-6.71C650.31,654.19,465.83,656.83,281.19,658.51z"/>
<path class="st1" d="M322.15,679.89c-19.14-3.93-38.97-8.17-54.62-19.86c-15.66-11.69-25.87-33.12-18.49-51.21
	c6.22-15.28,23.13-23.94,39.56-25.49s32.77,2.64,48.89,6.11c82.17,17.7,168.2,17.22,250.17-1.39c39.4-8.95,77.79-22,117.32-30.37
	s80.98-11.95,120.1-1.83c39.11,10.12,75.71,35.62,91.74,72.7c3.24,7.5,5.64,15.9,3.51,23.79c-4.37,16.17-24.13,21.69-40.69,24.2
	C696.14,704.38,506.76,717.84,322.15,679.89z"/>
<path class="st2" d="M282.95,607.49c-9.73,5.59-23.02,4.04-31.21-3.64c-8.18-7.67-10.58-20.84-5.63-30.91
	c9.59-19.49,37.71-19.69,58.03-12.03s40.47,20.47,61.94,17.16c19.42-3,34.58-18.65,53.42-24.24c31.83-9.44,64.93,11.47,98.11,10.29
	c38.08-1.36,71.32-31.52,109.4-30.06c34.37,1.32,64.58,28.38,98.93,26.45c14.72-0.83,28.51-6.97,42.49-11.64
	c13.98-4.67,29.41-7.88,43.27-2.86c13.86,5.02,24.55,21.04,19.04,34.71c-3.77,9.35-13.47,14.75-22.74,18.72
	c-52.28,22.37-111.05,22.21-167.91,21.68C512.22,619.94,384.34,618.76,282.95,607.49z"/>
<path class="st3" d="M301.67,533.8c-10.17,6.42-20.33,12.85-30.5,19.27c-5.58,11.73,11.56,20.74,24.43,22.47
	c153.52,20.53,309.66,21.37,463.4,2.48c19.03-2.34,38.54-5.14,55.29-14.47c16.75-9.33,30.38-26.7,29.77-45.87
	c-17.79-22.09-47.66-31.19-76.01-31.72c-28.35-0.53-56.26,6.23-84.35,10.16c-68.17,9.54-137.43,2.42-206.26,2.82
	C408.6,499.35,338.46,510.55,301.67,533.8z"/>
<path class="st4" d="M377.98,456.41c-56.91,8.25-111.99,28.95-160.25,60.23c-8.96,5.81-18.57,13.48-19.12,24.14
	c-0.77,15.09,16.68,24.23,31.64,26.39c72.52,10.48,138.14-48.24,211.3-52.23c43.62-2.38,85.74,14.92,129.06,20.57
	c57.83,7.54,116.12-5.82,172.91-19.09c7.34-1.71,15.04-3.62,20.52-8.79c7.69-7.25,8.95-19.6,5.05-29.42s-12.08-17.38-21-23.04
	c-24.96-15.85-55.78-18.79-85.32-20.02C564.1,431.05,465.21,443.77,377.98,456.41z"/>
<path class="st0" d="M306.85,490.73c-16.45-68.52-1.95-143.85,38.76-201.37s106.94-96.24,177.03-103.5
	c36.45-3.78,73.61,0.62,108.54,11.72c59.42,18.9,112.37,57.56,148.46,108.41s55.12,113.59,53.35,175.92
	C656.28,484.53,479.56,487.15,306.85,490.73z"/>
<path class="st5" d="M393.46,303.2c-8.5,8.03-17.42,16.78-19.88,28.21c-2.46,11.43,5.11,25.68,16.8,25.44
	c9.89-0.21,17.04-10.69,17.27-20.58C407.86,326.38,403.12,317.13,393.46,303.2z"/>
<path class="st5" d="M502.34,269.42c-0.62,12.97,5.68,26.07,16.21,33.66c6.44-7.43,13.04-15.14,16.07-24.49s1.62-20.88-6.01-27.1
	C521,245.28,503.4,247.51,502.34,269.42z"/>
<path class="st5" d="M628.07,360.55c-8.86,12.91-17.72,25.82-26.59,38.73c14.46,4.69,31.85-5.89,34.32-20.89
	C624.82,376.67,614.37,371.7,628.07,360.55z"/>
<path class="st5" d="M480.91,383.3c-12.76,4.68-23.72,14.11-30.25,26.03c15.33,13.11,38.2,16.68,56.8,8.86
	c0.63-18.14-8.26-36.34-22.96-46.98C482.04,371.41,480.71,375.02,480.91,383.3z"/>
<path class="st5" d="M725.6,304.62c-10.25,5.6-19.1,13.72-25.57,23.44c8.39,6.38,22.38,2.77,26.62-6.88
	C730.9,311.53,724.11,298.78,725.6,304.62z"/>
<path class="st5" d="M616.47,254.44c-3.98,14.84,3.46,31.95,17.03,39.15c7.81,4.09,18.11-3.11,19.09-11.87
	c0.98-8.76-5.15-17.1-12.87-21.35S622.96,255.1,616.47,254.44z"/>
<path class="st5" d="M769.96,402.36c-10.97-1.83-22.8,4.09-27.91,13.98c1.6,10.75,12.61,19.18,23.41,17.93
	c10.8-1.25,19.59-11.98,18.69-22.81S772.81,391.49,769.96,402.36z"/>
</svg>
