<?xml version="1.0" encoding="utf-8"?>
<!-- Generator: Adobe Adobe Illustrator 24.2.0, SVG Export Plug-In . SVG Version: 6.00 Build 0)  -->
<svg version="1.1" xmlns="http://www.w3.org/2000/svg" xmlns:xlink="http://www.w3.org/1999/xlink" x="0px" y="0px" width="1080px"
	 height="1080px" viewBox="0 0 1080 1080" style="enable-background:new 0 0 1080 1080;" xml:space="preserve">
<style type="text/css">
	.st0{display:none;}
	.st1{display:inline;fill:#DEAB4D;}
	.st2{display:inline;fill:#8B6A2A;}
	.st3{display:inline;fill:#DDF334;}
	.st4{display:inline;fill:#5AC148;}
	.st5{display:inline;fill:#DE5A4E;}
	.st6{display:inline;fill:#EFBC5A;}
	.st7{display:inline;fill:#C9A655;}
	.st8{display:inline;fill:#FC2B14;}
	.st9{display:inline;fill:#F6E3A6;}
	.st10{display:inline;fill:#F8791F;}
	.st11{fill:#328332;}
	.st12{fill:#4EBC3E;}
	.st13{fill:#F7B226;}
	.st14{fill:#B28827;}
</style>
<g id="Layer_1" class="st0">
	<path class="st1" d="M281.19,658.51c-6.79,48.48-13.58,96.96-20.37,145.45c-1.21,8.64-2.37,17.74,0.87,25.83
		c4.25,10.63,15.01,17,25.29,22.04c56.65,27.75,120.36,38.66,183.42,40.16c63.06,1.49,125.95-6.08,188.57-13.65
		c25.96-3.14,51.91-6.27,77.87-9.41c51.75-6.25,103.5-12.5,155.25-18.76c8.76-1.06,18.79-2.92,23.14-10.6
		c3.63-6.41,1.79-14.39-0.14-21.5c-12.16-44.75-24.31-89.51-36.47-134.26c-2.55-9.41-5.52-19.46-13.12-25.56
		c-8.35-6.71-20.02-6.87-30.73-6.71C650.31,654.19,465.83,656.83,281.19,658.51z"/>
	<path class="st2" d="M322.15,679.89c-19.14-3.93-38.97-8.17-54.62-19.86c-15.66-11.69-25.87-33.12-18.49-51.21
		c6.22-15.28,23.13-23.94,39.56-25.49s32.77,2.64,48.89,6.11c82.17,17.7,168.2,17.22,250.17-1.39c39.4-8.95,77.79-22,117.32-30.37
		s80.98-11.95,120.1-1.83c39.11,10.12,75.71,35.62,91.74,72.7c3.24,7.5,5.64,15.9,3.51,23.79c-4.37,16.17-24.13,21.69-40.69,24.2
		C696.14,704.38,506.76,717.84,322.15,679.89z"/>
	<path class="st3" d="M282.95,607.49c-9.73,5.59-23.02,4.04-31.21-3.64c-8.18-7.67-10.58-20.84-5.63-30.91
		c9.59-19.49,37.71-19.69,58.03-12.03s40.47,20.47,61.94,17.16c19.42-3,34.58-18.65,53.42-24.24c31.83-9.44,64.93,11.47,98.11,10.29
		c38.08-1.36,71.32-31.52,109.4-30.06c34.37,1.32,64.58,28.38,98.93,26.45c14.72-0.83,28.51-6.97,42.49-11.64
		c13.98-4.67,29.41-7.88,43.27-2.86c13.86,5.02,24.55,21.04,19.04,34.71c-3.77,9.35-13.47,14.75-22.74,18.72
		c-52.28,22.37-111.05,22.21-167.91,21.68C512.22,619.94,384.34,618.76,282.95,607.49z"/>
	<path class="st4" d="M301.67,533.8c-10.17,6.42-20.33,12.85-30.5,19.27c-5.58,11.73,11.56,20.74,24.43,22.47
		c153.52,20.53,309.66,21.37,463.4,2.48c19.03-2.34,38.54-5.14,55.29-14.47c16.75-9.33,30.38-26.7,29.77-45.87
		c-17.79-22.09-47.66-31.19-76.01-31.72c-28.35-0.53-56.26,6.23-84.35,10.16c-68.17,9.54-137.43,2.42-206.26,2.82
		C408.6,499.35,338.46,510.55,301.67,533.8z"/>
	<path class="st5" d="M377.98,456.41c-56.91,8.25-111.99,28.95-160.25,60.23c-8.96,5.81-18.57,13.48-19.12,24.14
		c-0.77,15.09,16.68,24.23,31.64,26.39c72.52,10.48,138.14-48.24,211.3-52.23c43.62-2.38,85.74,14.92,129.06,20.57
		c57.83,7.54,116.12-5.82,172.91-19.09c7.34-1.71,15.04-3.62,20.52-8.79c7.69-7.25,8.95-19.6,5.05-29.42s-12.08-17.38-21-23.04
		c-24.96-15.85-55.78-18.79-85.32-20.02C564.1,431.05,465.21,443.77,377.98,456.41z"/>
	<path class="st1" d="M306.85,490.73c-16.45-68.52-1.95-143.85,38.76-201.37s106.94-96.24,177.03-103.5
		c36.45-3.78,73.61,0.62,108.54,11.72c59.42,18.9,112.37,57.56,148.46,108.41s55.12,113.59,53.35,175.92
		C656.28,484.53,479.56,487.15,306.85,490.73z"/>
	<path class="st6" d="M393.46,303.2c-8.5,8.03-17.42,16.78-19.88,28.21c-2.46,11.43,5.11,25.68,16.8,25.44
		c9.89-0.21,17.04-10.69,17.27-20.58C407.86,326.38,403.12,317.13,393.46,303.2z"/>
	<path class="st6" d="M502.34,269.42c-0.62,12.97,5.68,26.07,16.21,33.66c6.44-7.43,13.04-15.14,16.07-24.49s1.62-20.88-6.01-27.1
		C521,245.28,503.4,247.51,502.34,269.42z"/>
	<path class="st6" d="M628.07,360.55c-8.86,12.91-17.72,25.82-26.59,38.73c14.46,4.69,31.85-5.89,34.32-20.89
		C624.82,376.67,614.37,371.7,628.07,360.55z"/>
	<path class="st6" d="M480.91,383.3c-12.76,4.68-23.72,14.11-30.25,26.03c15.33,13.11,38.2,16.68,56.8,8.86
		c0.63-18.14-8.26-36.34-22.96-46.98C482.04,371.41,480.71,375.02,480.91,383.3z"/>
	<path class="st6" d="M725.6,304.62c-10.25,5.6-19.1,13.72-25.57,23.44c8.39,6.38,22.38,2.77,26.62-6.88
		C730.9,311.53,724.11,298.78,725.6,304.62z"/>
	<path class="st6" d="M616.47,254.44c-3.98,14.84,3.46,31.95,17.03,39.15c7.81,4.09,18.11-3.11,19.09-11.87
		c0.98-8.76-5.15-17.1-12.87-21.35S622.96,255.1,616.47,254.44z"/>
	<path class="st6" d="M769.96,402.36c-10.97-1.83-22.8,4.09-27.91,13.98c1.6,10.75,12.61,19.18,23.41,17.93
		c10.8-1.25,19.59-11.98,18.69-22.81S772.81,391.49,769.96,402.36z"/>
</g>
<g id="Layer_2" class="st0">
	<path class="st7" d="M485.1,340.65c-3.45-34.31-6.9-68.62-10.35-102.93c-1.29-12.78-2.18-27,5.77-37.08
		c8.59-10.9,25.03-12.78,38.12-8.15c13.08,4.63,23.59,14.39,33.7,23.9c78.87,74.19,157.74,148.37,236.62,222.56
		c26.84,25.25,55.4,53.85,58.94,90.52c1.9,19.65-4.58,40.6-19.43,53.61c-14.85,13.01-38.35,16.31-54.86,5.49
		c-10.44-6.85-17.38-18.35-28.36-24.31c-12.74-6.92-28.8-4.96-41.86,1.33c-13.06,6.29-23.82,16.4-34.6,26.09
		C528.31,718.12,351.27,798.73,168.6,847.29c-23.08,6.13-47.39,11.8-70.59,6.17c-23.21-5.64-44.56-26.28-42.69-50.09
		c1.28-16.3,12.99-30.27,26.94-38.81s30.07-12.62,45.8-17.1c66.53-18.93,132.29-48.06,180.1-98.05
		c36.66-38.33,60.73-86.68,84.24-134.23C422.41,454.47,452.43,393.77,485.1,340.65z"/>
	<path class="st8" d="M98.21,762.34c-13.43,1.89-25.36,11.99-29.44,24.92c-4.08,12.93-0.11,28.05,9.81,37.31
		c29.94,27.94,82-8,118.75,10.06c11.65,5.72,21.79,16.89,34.74,16.09c18.42-1.13,29.71-26.03,48.11-24.66
		c12.51,0.93,20.77,13.8,32.65,17.81c17.89,6.03,36.27-10.51,42.18-28.44c5.91-17.93,4.17-37.52,8.51-55.89
		c4.35-18.37,18.7-37.26,37.54-36.02c11.24,0.74,20.59,8.4,30.43,13.88c25.92,14.45,59.54,13.93,85-1.31
		c25.46-15.24,41.8-44.63,41.31-74.3c19.92-16.37,54.46-8.71,65.61,14.54c6.21,12.96,5.51,27.98,6.94,42.29s6.29,29.96,18.93,36.8
		c21.12,11.42,45.93-9.94,54.87-32.22s11.51-48.51,28.72-65.25c16.21-15.76,44.51-22.57,48.4-44.84
		c4.3-24.64-26.96-44.96-22.87-69.63c1.73-10.39,9.53-18.76,12.65-28.82c5.57-17.94-5.09-37.45-19.71-49.25
		c-14.62-11.8-32.76-18.14-49.38-26.91c-44.52-23.47-77.24-63.73-111.94-100.18s-64.21-80.34-113.99-87.77"/>
	<path class="st9" d="M348.87,418.27c-54.59,96.1-128.07,181.43-215,249.67c-20.79,16.32-42.8,32.16-57.32,54.25
		c-14.52,22.09-19.93,52.54-5.54,74.72c10.92,16.83,31.19,25.74,51.15,27.73s39.99-2.01,59.65-5.98
		c16.94-3.42,33.89-6.85,50.83-10.27c9.32-1.88,19.47-3.67,27.96,0.61c15.58,7.85,16.75,31,30.84,41.27
		c14.86,10.83,37.46,1.17,46.55-14.82c9.08-16,8.39-35.54,7.08-53.88s-2.82-37.65,4.97-54.32c7.5-16.04,23.67-27.7,41.26-29.74
		s36,5.59,46.99,19.48c9.67,12.24,13.35,28.01,19.64,42.29s17.28,28.5,32.76,30.42c19.47,2.41,36-16.56,39.42-35.87
		c3.42-19.31-2.23-38.9-5.5-58.24s-3.57-41.03,8.56-56.45c17.64-22.43,54.91-20,76.57-1.42s30.73,47.86,35.25,76.04
		s5.62,57.28,15.82,83.93c4.59,12,12.46,24.46,25.02,27.18c14.88,3.21,29.4-9.59,33.74-24.18c4.35-14.59,1.28-30.23-1.66-45.16
		c-2.94-14.94-5.66-30.72-0.7-45.11c7.45-21.57,30.46-35.02,37.5-56.73c10.23-31.5-17.09-64.62-11.69-97.29
		c2.89-17.5,15.03-34.88,8.82-51.49c-7.16-19.15-32.15-22.13-51.21-29.52c-35.67-13.83-56.64-49.69-79.55-80.33
		s-57.24-60.45-94.78-53.06c-3.78-21.3-8.17-43.87-22.91-59.7S385.58,353.66,348.87,418.27z"/>
	<path class="st10" d="M446.25,382.02c-13.61,5.06-25.88,14.32-33.2,26.86c-7.32,12.54-9.28,28.42-3.84,41.88
		c5.44,13.46,18.67,23.81,33.17,24.49c12.14,0.57,23.8-5.29,33.12-13.08c9.78-8.18,17.77-18.88,21.14-31.18s1.73-26.24-5.82-36.52
		S468.31,373.81,446.25,382.02z"/>
	<path class="st10" d="M207.32,649.56c-6.54,4.51-13.16,9.1-18.23,15.21c-5.07,6.11-8.49,14.04-7.47,21.91
		c1.77,13.7,15.73,22.39,29,26.2c13.39,3.85,28.28,4.7,40.86-1.29c12.58-5.99,21.87-20.11,19.1-33.77
		c-1.76-8.69-7.96-15.96-15.3-20.92C247.94,651.94,239.47,648.96,207.32,649.56z"/>
	<path class="st10" d="M427.97,555.97c-8.02,5.72-16.86,12.94-16.94,22.79c-0.06,7.26,5.2,13.92,11.89,16.72
		c6.7,2.8,14.47,2.14,21.22-0.52c7.16-2.83,13.62-8.12,16.46-15.27c2.84-7.16,1.38-16.19-4.51-21.14S437.86,548.91,427.97,555.97z"
		/>
	<path class="st10" d="M302.99,539.33c-3.65,6.62-7.37,13.48-8.11,21c-0.74,7.52,2.3,15.95,9.1,19.25
		c10.13,4.91,22.63-4.93,23.97-16.11C329.29,552.29,322.79,541.63,302.99,539.33z"/>
	<path class="st10" d="M610.04,487.81c-10.95,8.57-22.18,17.45-29.02,29.56s-8.28,28.36,0.27,39.33
		c10.13,12.99,31.27,13.41,44.48,3.55c13.2-9.85,19.11-27.18,19.12-43.65c0.01-9.34-1.75-18.95-6.91-26.74
		C632.82,482.06,624.09,476.81,610.04,487.81z"/>
</g>
<g id="Layer_3">
	<path class="st11" d="M536.88,231.54c1.4-50.32,42.32-94.71,91.05-107.33s102.12,3.35,141.4,34.82
		c39.28,31.47,65.59,76.86,81.76,124.53c27.19,80.19,23.81,178.03-35.23,238.73c-11.08-28.15-40.24-48.17-70.5-48.41
		C706.16,369.09,633.82,276.98,536.88,231.54z"/>
	<path class="st12" d="M518.02,213.99c-15.71-16.8-31.69-34.01-41.15-54.98s-11.38-46.74,0.84-66.23
		c11.28-17.99,32.21-27.45,52.68-33.11c52.86-14.62,110.83-10,160.71,12.81c24.97,11.42,47.72,27.09,70.32,42.68
		c34.46,23.77,68.92,47.53,103.38,71.3c12.6,8.69,25.29,17.45,36.14,28.25c34.84,34.66,46.97,86.6,46.62,135.74
		s-11.48,97.52-16.08,146.44c-6.37,67.84-0.13,136.18-1.63,204.3s-11.54,138.3-47.06,196.44c15.51-61.24,7.2-128.2-22.81-183.79
		c3.33,32.5-15.17,66.15-44.41,80.74c22.4-71.37,23.96-149.14,4.44-221.35c-0.68,27-22.05,52.06-48.6,56.99
		c13.3-46.1,14.07-95.74,2.23-142.23c-8.69-0.01-17.38-0.01-26.06-0.02c7.98-30.44,31.18-54.02,50.17-79.11s34.93-57.18,25.23-87.11
		c-8.22-25.37-32.35-41.6-54.9-55.85c-31.2-19.71-62.39-39.42-93.59-59.14c-20.05-12.67-41.59-25.78-65.3-25.46
		C582.93,181.66,560.07,198.32,518.02,213.99z"/>
	<path class="st11" d="M513.87,193.19c-12.01-16.45-13.16-40.09-2.82-57.63s31.6-27.97,51.8-25.42
		c27.88,3.52,51.19,28.91,79.16,26.11c15.33-1.54,29.68-11.64,44.91-9.32c13.12,2,22.98,12.64,31.7,22.65
		c25.81,29.58,51.62,59.16,77.43,88.74c-35.24-8.56-66.66-28.04-98.02-46.25c-31.36-18.21-64.34-35.77-100.38-39.8
		C561.63,148.23,521.54,160.61,513.87,193.19z"/>
	<path class="st11" d="M835.86,278.45c45.39,49.6,54.54,128.9,21.65,187.54c27.46-25.29,41.06-64.79,35.01-101.63
		S860.93,294.46,835.86,278.45z"/>
	<path class="st11" d="M811.38,453.26c-0.78,17.58-1.56,35.16-2.35,52.75C825.4,488.92,832.1,463.14,811.38,453.26z"/>
	<path class="st11" d="M889.69,547.63c-8.6,34.87-12.57,70.87-11.78,106.78c2.59-15.62-3.21-31.32-9.5-45.85
		c-6.29-14.53-13.3-29.4-13.28-45.23C855.16,547.49,864.72,530.35,889.69,547.63z"/>
	<path class="st13" d="M462.21,853.16c-35.29-36.58-52.56-89.79-45.47-140.12c-12.72-47.08-25.45-94.16-38.17-141.25
		c-4.05-14.99-8.06-31.15-2.65-45.71c5.21-14,18.71-25.06,19.12-39.99c0.52-19.05-19.5-30.84-34.01-43.2
		c-26.93-22.95-39.53-58.08-51.02-91.55c-10.49-30.54-21.09-63.16-13.41-94.51c12.09-49.33,64.69-77.3,114.23-88.55
		c97.11-22.05,203.01-2.12,285.47,53.7c30.1,20.38,59.6,51.22,55.78,87.37c-2.35,22.27-16.97,41-30.42,58.9
		c-41.78,55.56-77.63,115.58-106.74,178.7c-12.51,27.13-23.92,55.36-26.61,85.11c-3.8,42.03,9.25,88.16-12.52,124.31
		c-11.33,18.82-30.99,32.26-39.19,52.63c-12.46,30.96,4.12,71.39-17.52,96.8c-10.23,12.01-27.98,16.99-42.96,12.04
		C461.14,912.91,449.84,898.34,462.21,853.16z"/>
	<path class="st14" d="M321.12,349.66C350,324.07,388,308.99,426.57,307.8s77.43,11.51,107.84,35.27
		c-50.86-9.09-104.66-0.77-150.4,23.25c-9.14,4.8-18.11,10.26-28.12,12.8c-10.01,2.54-21.56,1.67-29.32-5.15
		C318.81,367.16,316.96,353.35,321.12,349.66z"/>
	<path class="st14" d="M589.74,516.97c-26.89-15.84-58.46-23.61-89.63-22.04c31.05,14.81,62.1,29.63,93.14,44.44
		C592.63,532.47,587.68,526.15,589.74,516.97z"/>
	<path class="st14" d="M440.82,655.15c25.95,0.07,51.89,0.14,77.84,0.21C488.08,665.29,458.91,679.6,440.82,655.15z"/>
	<path class="st14" d="M523.32,737.65c0.69,14.4,1.38,28.8,2.06,43.2c-15.03,5.5-33.45-0.42-42.46-13.65
		C473.91,753.97,475.14,734.67,523.32,737.65z"/>
	<path class="st14" d="M463.73,837.89c15.39-7.26,32.91-9.92,49.75-7.56C500.69,837.44,487.9,844.55,463.73,837.89z"/>
</g>
</svg>
