<?xml version="1.0" encoding="utf-8"?>
<!-- Generator: Adobe Adobe Illustrator 24.2.0, SVG Export Plug-In . SVG Version: 6.00 Build 0)  -->
<svg version="1.1" xmlns="http://www.w3.org/2000/svg" xmlns:xlink="http://www.w3.org/1999/xlink" x="0px" y="0px" width="1080px"
	 height="1080px" viewBox="0 0 1080 1080" style="enable-background:new 0 0 1080 1080;" xml:space="preserve">
<style type="text/css">
	.st0{display:none;}
	.st1{display:inline;fill:#DEAB4D;}
	.st2{display:inline;fill:#8B6A2A;}
	.st3{display:inline;fill:#DDF334;}
	.st4{display:inline;fill:#5AC148;}
	.st5{display:inline;fill:#DE5A4E;}
	.st6{display:inline;fill:#EFBC5A;}
	.st7{display:inline;fill:#C9A655;}
	.st8{display:inline;fill:#FC2B14;}
	.st9{display:inline;fill:#F6E3A6;}
	.st10{display:inline;fill:#F8791F;}
	.st11{display:inline;fill:#328332;}
	.st12{display:inline;fill:#4EBC3E;}
	.st13{display:inline;fill:#F7B226;}
	.st14{display:inline;fill:#B28827;}
	.st15{display:inline;fill:#13381B;}
	.st16{display:inline;opacity:0.4196;fill:#288540;}
	.st17{display:inline;fill:#2EB343;}
	.st18{display:inline;fill:#169236;}
	.st19{display:inline;opacity:0.6588;fill:#1C592D;}
	.st20{fill:#D69538;}
	.st21{opacity:0.5412;fill:#F9B9DB;}
	.st22{fill:#D4359C;}
	.st23{fill:#E0369A;}
	.st24{fill:#F9B9DB;}
</style>
<g id="Layer_1" class="st0">
	<path class="st1" d="M281.19,658.51c-6.79,48.48-13.58,96.96-20.37,145.45c-1.21,8.64-2.37,17.74,0.87,25.83
		c4.25,10.63,15.01,17,25.29,22.04c56.65,27.75,120.36,38.66,183.42,40.16c63.06,1.49,125.95-6.08,188.57-13.65
		c25.96-3.14,51.91-6.27,77.87-9.41c51.75-6.25,103.5-12.5,155.25-18.76c8.76-1.06,18.79-2.92,23.14-10.6
		c3.63-6.41,1.79-14.39-0.14-21.5c-12.16-44.75-24.31-89.51-36.47-134.26c-2.55-9.41-5.52-19.46-13.12-25.56
		c-8.35-6.71-20.02-6.87-30.73-6.71C650.31,654.19,465.83,656.83,281.19,658.51z"/>
	<path class="st2" d="M322.15,679.89c-19.14-3.93-38.97-8.17-54.62-19.86c-15.66-11.69-25.87-33.12-18.49-51.21
		c6.22-15.28,23.13-23.94,39.56-25.49s32.77,2.64,48.89,6.11c82.17,17.7,168.2,17.22,250.17-1.39c39.4-8.95,77.79-22,117.32-30.37
		s80.98-11.95,120.1-1.83c39.11,10.12,75.71,35.62,91.74,72.7c3.24,7.5,5.64,15.9,3.51,23.79c-4.37,16.17-24.13,21.69-40.69,24.2
		C696.14,704.38,506.76,717.84,322.15,679.89z"/>
	<path class="st3" d="M282.95,607.49c-9.73,5.59-23.02,4.04-31.21-3.64c-8.18-7.67-10.58-20.84-5.63-30.91
		c9.59-19.49,37.71-19.69,58.03-12.03s40.47,20.47,61.94,17.16c19.42-3,34.58-18.65,53.42-24.24c31.83-9.44,64.93,11.47,98.11,10.29
		c38.08-1.36,71.32-31.52,109.4-30.06c34.37,1.32,64.58,28.38,98.93,26.45c14.72-0.83,28.51-6.97,42.49-11.64
		c13.98-4.67,29.41-7.88,43.27-2.86c13.86,5.02,24.55,21.04,19.04,34.71c-3.77,9.35-13.47,14.75-22.74,18.72
		c-52.28,22.37-111.05,22.21-167.91,21.68C512.22,619.94,384.34,618.76,282.95,607.49z"/>
	<path class="st4" d="M301.67,533.8c-10.17,6.42-20.33,12.85-30.5,19.27c-5.58,11.73,11.56,20.74,24.43,22.47
		c153.52,20.53,309.66,21.37,463.4,2.48c19.03-2.34,38.54-5.14,55.29-14.47c16.75-9.33,30.38-26.7,29.77-45.87
		c-17.79-22.09-47.66-31.19-76.01-31.72c-28.35-0.53-56.26,6.23-84.35,10.16c-68.17,9.54-137.43,2.42-206.26,2.82
		C408.6,499.35,338.46,510.55,301.67,533.8z"/>
	<path class="st5" d="M377.98,456.41c-56.91,8.25-111.99,28.95-160.25,60.23c-8.96,5.81-18.57,13.48-19.12,24.14
		c-0.77,15.09,16.68,24.23,31.64,26.39c72.52,10.48,138.14-48.24,211.3-52.23c43.62-2.38,85.74,14.92,129.06,20.57
		c57.83,7.54,116.12-5.82,172.91-19.09c7.34-1.71,15.04-3.62,20.52-8.79c7.69-7.25,8.95-19.6,5.05-29.42s-12.08-17.38-21-23.04
		c-24.96-15.85-55.78-18.79-85.32-20.02C564.1,431.05,465.21,443.77,377.98,456.41z"/>
	<path class="st1" d="M306.85,490.73c-16.45-68.52-1.95-143.85,38.76-201.37s106.94-96.24,177.03-103.5
		c36.45-3.78,73.61,0.62,108.54,11.72c59.42,18.9,112.37,57.56,148.46,108.41s55.12,113.59,53.35,175.92
		C656.28,484.53,479.56,487.15,306.85,490.73z"/>
	<path class="st6" d="M393.46,303.2c-8.5,8.03-17.42,16.78-19.88,28.21c-2.46,11.43,5.11,25.68,16.8,25.44
		c9.89-0.21,17.04-10.69,17.27-20.58C407.86,326.38,403.12,317.13,393.46,303.2z"/>
	<path class="st6" d="M502.34,269.42c-0.62,12.97,5.68,26.07,16.21,33.66c6.44-7.43,13.04-15.14,16.07-24.49s1.62-20.88-6.01-27.1
		C521,245.28,503.4,247.51,502.34,269.42z"/>
	<path class="st6" d="M628.07,360.55c-8.86,12.91-17.72,25.82-26.59,38.73c14.46,4.69,31.85-5.89,34.32-20.89
		C624.82,376.67,614.37,371.7,628.07,360.55z"/>
	<path class="st6" d="M480.91,383.3c-12.76,4.68-23.72,14.11-30.25,26.03c15.33,13.11,38.2,16.68,56.8,8.86
		c0.63-18.14-8.26-36.34-22.96-46.98C482.04,371.41,480.71,375.02,480.91,383.3z"/>
	<path class="st6" d="M725.6,304.62c-10.25,5.6-19.1,13.72-25.57,23.44c8.39,6.38,22.38,2.77,26.62-6.88
		C730.9,311.53,724.11,298.78,725.6,304.62z"/>
	<path class="st6" d="M616.47,254.44c-3.98,14.84,3.46,31.95,17.03,39.15c7.81,4.09,18.11-3.11,19.09-11.87
		c0.98-8.76-5.15-17.1-12.87-21.35S622.96,255.1,616.47,254.44z"/>
	<path class="st6" d="M769.96,402.36c-10.97-1.83-22.8,4.09-27.91,13.98c1.6,10.75,12.61,19.18,23.41,17.93
		c10.8-1.25,19.59-11.98,18.69-22.81S772.81,391.49,769.96,402.36z"/>
</g>
<g id="Layer_2" class="st0">
	<path class="st7" d="M485.1,340.65c-3.45-34.31-6.9-68.62-10.35-102.93c-1.29-12.78-2.18-27,5.77-37.08
		c8.59-10.9,25.03-12.78,38.12-8.15c13.08,4.63,23.59,14.39,33.7,23.9c78.87,74.19,157.74,148.37,236.62,222.56
		c26.84,25.25,55.4,53.85,58.94,90.52c1.9,19.65-4.58,40.6-19.43,53.61c-14.85,13.01-38.35,16.31-54.86,5.49
		c-10.44-6.85-17.38-18.35-28.36-24.31c-12.74-6.92-28.8-4.96-41.86,1.33c-13.06,6.29-23.82,16.4-34.6,26.09
		C528.31,718.12,351.27,798.73,168.6,847.29c-23.08,6.13-47.39,11.8-70.59,6.17c-23.21-5.64-44.56-26.28-42.69-50.09
		c1.28-16.3,12.99-30.27,26.94-38.81s30.07-12.62,45.8-17.1c66.53-18.93,132.29-48.06,180.1-98.05
		c36.66-38.33,60.73-86.68,84.24-134.23C422.41,454.47,452.43,393.77,485.1,340.65z"/>
	<path class="st8" d="M98.21,762.34c-13.43,1.89-25.36,11.99-29.44,24.92c-4.08,12.93-0.11,28.05,9.81,37.31
		c29.94,27.94,82-8,118.75,10.06c11.65,5.72,21.79,16.89,34.74,16.09c18.42-1.13,29.71-26.03,48.11-24.66
		c12.51,0.93,20.77,13.8,32.65,17.81c17.89,6.03,36.27-10.51,42.18-28.44c5.91-17.93,4.17-37.52,8.51-55.89
		c4.35-18.37,18.7-37.26,37.54-36.02c11.24,0.74,20.59,8.4,30.43,13.88c25.92,14.45,59.54,13.93,85-1.31
		c25.46-15.24,41.8-44.63,41.31-74.3c19.92-16.37,54.46-8.71,65.61,14.54c6.21,12.96,5.51,27.98,6.94,42.29s6.29,29.96,18.93,36.8
		c21.12,11.42,45.93-9.94,54.87-32.22s11.51-48.51,28.72-65.25c16.21-15.76,44.51-22.57,48.4-44.84
		c4.3-24.64-26.96-44.96-22.87-69.63c1.73-10.39,9.53-18.76,12.65-28.82c5.57-17.94-5.09-37.45-19.71-49.25
		c-14.62-11.8-32.76-18.14-49.38-26.91c-44.52-23.47-77.24-63.73-111.94-100.18s-64.21-80.34-113.99-87.77"/>
	<path class="st9" d="M348.87,418.27c-54.59,96.1-128.07,181.43-215,249.67c-20.79,16.32-42.8,32.16-57.32,54.25
		c-14.52,22.09-19.93,52.54-5.54,74.72c10.92,16.83,31.19,25.74,51.15,27.73s39.99-2.01,59.65-5.98
		c16.94-3.42,33.89-6.85,50.83-10.27c9.32-1.88,19.47-3.67,27.96,0.61c15.58,7.85,16.75,31,30.84,41.27
		c14.86,10.83,37.46,1.17,46.55-14.82c9.08-16,8.39-35.54,7.08-53.88s-2.82-37.65,4.97-54.32c7.5-16.04,23.67-27.7,41.26-29.74
		s36,5.59,46.99,19.48c9.67,12.24,13.35,28.01,19.64,42.29s17.28,28.5,32.76,30.42c19.47,2.41,36-16.56,39.42-35.87
		c3.42-19.31-2.23-38.9-5.5-58.24s-3.57-41.03,8.56-56.45c17.64-22.43,54.91-20,76.57-1.42s30.73,47.86,35.25,76.04
		s5.62,57.28,15.82,83.93c4.59,12,12.46,24.46,25.02,27.18c14.88,3.21,29.4-9.59,33.74-24.18c4.35-14.59,1.28-30.23-1.66-45.16
		c-2.94-14.94-5.66-30.72-0.7-45.11c7.45-21.57,30.46-35.02,37.5-56.73c10.23-31.5-17.09-64.62-11.69-97.29
		c2.89-17.5,15.03-34.88,8.82-51.49c-7.16-19.15-32.15-22.13-51.21-29.52c-35.67-13.83-56.64-49.69-79.55-80.33
		s-57.24-60.45-94.78-53.06c-3.78-21.3-8.17-43.87-22.91-59.7S385.58,353.66,348.87,418.27z"/>
	<path class="st10" d="M446.25,382.02c-13.61,5.06-25.88,14.32-33.2,26.86c-7.32,12.54-9.28,28.42-3.84,41.88
		c5.44,13.46,18.67,23.81,33.17,24.49c12.14,0.57,23.8-5.29,33.12-13.08c9.78-8.18,17.77-18.88,21.14-31.18s1.73-26.24-5.82-36.52
		S468.31,373.81,446.25,382.02z"/>
	<path class="st10" d="M207.32,649.56c-6.54,4.51-13.16,9.1-18.23,15.21c-5.07,6.11-8.49,14.04-7.47,21.91
		c1.77,13.7,15.73,22.39,29,26.2c13.39,3.85,28.28,4.7,40.86-1.29c12.58-5.99,21.87-20.11,19.1-33.77
		c-1.76-8.69-7.96-15.96-15.3-20.92C247.94,651.94,239.47,648.96,207.32,649.56z"/>
	<path class="st10" d="M427.97,555.97c-8.02,5.72-16.86,12.94-16.94,22.79c-0.06,7.26,5.2,13.92,11.89,16.72
		c6.7,2.8,14.47,2.14,21.22-0.52c7.16-2.83,13.62-8.12,16.46-15.27c2.84-7.16,1.38-16.19-4.51-21.14S437.86,548.91,427.97,555.97z"
		/>
	<path class="st10" d="M302.99,539.33c-3.65,6.62-7.37,13.48-8.11,21c-0.74,7.52,2.3,15.95,9.1,19.25
		c10.13,4.91,22.63-4.93,23.97-16.11C329.29,552.29,322.79,541.63,302.99,539.33z"/>
	<path class="st10" d="M610.04,487.81c-10.95,8.57-22.18,17.45-29.02,29.56s-8.28,28.36,0.27,39.33
		c10.13,12.99,31.27,13.41,44.48,3.55c13.2-9.85,19.11-27.18,19.12-43.65c0.01-9.34-1.75-18.95-6.91-26.74
		C632.82,482.06,624.09,476.81,610.04,487.81z"/>
</g>
<g id="Layer_3" class="st0">
	<path class="st11" d="M536.88,231.54c1.4-50.32,42.32-94.71,91.05-107.33s102.12,3.35,141.4,34.82
		c39.28,31.47,65.59,76.86,81.76,124.53c27.19,80.19,23.81,178.03-35.23,238.73c-11.08-28.15-40.24-48.17-70.5-48.41
		C706.16,369.09,633.82,276.98,536.88,231.54z"/>
	<path class="st12" d="M518.02,213.99c-15.71-16.8-31.69-34.01-41.15-54.98s-11.38-46.74,0.84-66.23
		c11.28-17.99,32.21-27.45,52.68-33.11c52.86-14.62,110.83-10,160.71,12.81c24.97,11.42,47.72,27.09,70.32,42.68
		c34.46,23.77,68.92,47.53,103.38,71.3c12.6,8.69,25.29,17.45,36.14,28.25c34.84,34.66,46.97,86.6,46.62,135.74
		s-11.48,97.52-16.08,146.44c-6.37,67.84-0.13,136.18-1.63,204.3s-11.54,138.3-47.06,196.44c15.51-61.24,7.2-128.2-22.81-183.79
		c3.33,32.5-15.17,66.15-44.41,80.74c22.4-71.37,23.96-149.14,4.44-221.35c-0.68,27-22.05,52.06-48.6,56.99
		c13.3-46.1,14.07-95.74,2.23-142.23c-8.69-0.01-17.38-0.01-26.06-0.02c7.98-30.44,31.18-54.02,50.17-79.11s34.93-57.18,25.23-87.11
		c-8.22-25.37-32.35-41.6-54.9-55.85c-31.2-19.71-62.39-39.42-93.59-59.14c-20.05-12.67-41.59-25.78-65.3-25.46
		C582.93,181.66,560.07,198.32,518.02,213.99z"/>
	<path class="st11" d="M513.87,193.19c-12.01-16.45-13.16-40.09-2.82-57.63s31.6-27.97,51.8-25.42
		c27.88,3.52,51.19,28.91,79.16,26.11c15.33-1.54,29.68-11.64,44.91-9.32c13.12,2,22.98,12.64,31.7,22.65
		c25.81,29.58,51.62,59.16,77.43,88.74c-35.24-8.56-66.66-28.04-98.02-46.25c-31.36-18.21-64.34-35.77-100.38-39.8
		C561.63,148.23,521.54,160.61,513.87,193.19z"/>
	<path class="st11" d="M835.86,278.45c45.39,49.6,54.54,128.9,21.65,187.54c27.46-25.29,41.06-64.79,35.01-101.63
		S860.93,294.46,835.86,278.45z"/>
	<path class="st11" d="M811.38,453.26c-0.78,17.58-1.56,35.16-2.35,52.75C825.4,488.92,832.1,463.14,811.38,453.26z"/>
	<path class="st11" d="M889.69,547.63c-8.6,34.87-12.57,70.87-11.78,106.78c2.59-15.62-3.21-31.32-9.5-45.85
		c-6.29-14.53-13.3-29.4-13.28-45.23C855.16,547.49,864.72,530.35,889.69,547.63z"/>
	<path class="st13" d="M462.21,853.16c-35.29-36.58-52.56-89.79-45.47-140.12c-12.72-47.08-25.45-94.16-38.17-141.25
		c-4.05-14.99-8.06-31.15-2.65-45.71c5.21-14,18.71-25.06,19.12-39.99c0.52-19.05-19.5-30.84-34.01-43.2
		c-26.93-22.95-39.53-58.08-51.02-91.55c-10.49-30.54-21.09-63.16-13.41-94.51c12.09-49.33,64.69-77.3,114.23-88.55
		c97.11-22.05,203.01-2.12,285.47,53.7c30.1,20.38,59.6,51.22,55.78,87.37c-2.35,22.27-16.97,41-30.42,58.9
		c-41.78,55.56-77.63,115.58-106.74,178.7c-12.51,27.13-23.92,55.36-26.61,85.11c-3.8,42.03,9.25,88.16-12.52,124.31
		c-11.33,18.82-30.99,32.26-39.19,52.63c-12.46,30.96,4.12,71.39-17.52,96.8c-10.23,12.01-27.98,16.99-42.96,12.04
		C461.14,912.91,449.84,898.34,462.21,853.16z"/>
	<path class="st14" d="M321.12,349.66C350,324.07,388,308.99,426.57,307.8s77.43,11.51,107.84,35.27
		c-50.86-9.09-104.66-0.77-150.4,23.25c-9.14,4.8-18.11,10.26-28.12,12.8c-10.01,2.54-21.56,1.67-29.32-5.15
		C318.81,367.16,316.96,353.35,321.12,349.66z"/>
	<path class="st14" d="M589.74,516.97c-26.89-15.84-58.46-23.61-89.63-22.04c31.05,14.81,62.1,29.63,93.14,44.44
		C592.63,532.47,587.68,526.15,589.74,516.97z"/>
	<path class="st14" d="M440.82,655.15c25.95,0.07,51.89,0.14,77.84,0.21C488.08,665.29,458.91,679.6,440.82,655.15z"/>
	<path class="st14" d="M523.32,737.65c0.69,14.4,1.38,28.8,2.06,43.2c-15.03,5.5-33.45-0.42-42.46-13.65
		C473.91,753.97,475.14,734.67,523.32,737.65z"/>
	<path class="st14" d="M463.73,837.89c15.39-7.26,32.91-9.92,49.75-7.56C500.69,837.44,487.9,844.55,463.73,837.89z"/>
</g>
<g id="Layer_4" class="st0">
	<path class="st15" d="M192.8,418.11c-39.73,20.37-94.64,1.32-113.23-39.27s2.89-94.61,44.28-111.36
		c37.75-15.28,91.54-6.94,109.69-43.4c8.86-17.79,4.18-39.55,10.66-58.35c13.49-39.17,66.61-46.99,106.71-36.57
		s79.13,32.21,120.24,27.08c52.2-6.53,91.83-54.86,144.01-61.52c39.08-4.99,76.69,14.38,111.33,33.14
		c67.25,36.43,137.15,75.21,179.8,138.7c27.61,41.11,41.86,90.71,42.41,140.23c0.5,45.2-10.78,91.56-38.08,127.59
		c-27.29,36.03-71.93,60.21-116.99,56.7c-47.02-3.66-87.22-35.18-133.02-46.46c-56.16-13.83-114.87,3.8-172.7,3.62
		C376.67,547.91,277.36,482.74,192.8,418.11z"/>
	<path class="st16" d="M181.32,387.23c-28.6-13.36-57.19-26.72-85.79-40.08c29.25,3.66,54.39-19.6,73.57-41.99
		c19.18-22.38,40.58-47.64,69.95-50.07c22.12-1.83,46.48,9.73,65.41-1.85c15.7-9.61,19.33-30.3,23.13-48.31
		c3.8-18.01,12.42-38.69,30.53-42c17.71-3.24,32.62,12.03,48.24,20.98c33.62,19.26,81.72,6.2,100.99-27.41
		c2.11,20.52,17.7,37.67,35.96,47.27c18.26,9.59,39.06,12.92,59.44,16.11c21.25,3.33,42.49,6.65,63.74,9.98
		c12.61,1.98,25.26,3.96,37.55,7.43c47.96,13.54,88.59,50.82,106.18,97.45c30.21,18.81,62.63,40.37,73.31,74.32
		c10.9,34.65-4.17,71.57-18.95,104.75c-7.95,17.84-17.29,37.14-35.06,45.25c-22.08,10.09-47.56-1.07-69.21-12.07
		c-46.16-23.46-92.32-46.91-138.48-70.37c-46.16-23.46-96.61-47.61-147.55-38.29c-23.43,4.28-44.96,15.43-67.58,22.89
		c-22.62,7.46-48.32,10.97-69.59,0.25c-23.26-11.72-35.49-37.1-50.14-58.63C272.32,381.3,248.54,360.6,181.32,387.23z"/>
	<path class="st17" d="M91.58,329.44c-2.11,5.67-2.75,11.89-1.83,17.87c5.92,0.25,12.25-1.77,15.78-6.53
		c3.53-4.76,3.17-12.45-1.68-15.86C99,321.51,90.66,325.09,91.58,329.44z"/>
	<path class="st17" d="M146.27,285.31c1.62,7.78,6.09,14.94,12.37,19.82c3.39-2.59,5.93-6.59,5.89-10.86
		c-0.04-4.27-3.17-8.56-7.4-9.11S148.49,288.79,146.27,285.31z"/>
	<path class="st17" d="M232.25,259.97c-5.7,8.59-9.09,18.7-9.72,28.99c6.45,6.06,18.9,2.72,21.44-5.76
		C246.5,274.72,237.94,265.08,232.25,259.97z"/>
	<path class="st17" d="M294.46,299.26c3.15,4.84,6.29,9.69,9.44,14.53c1.74-0.23,3.47-0.45,5.21-0.68
		C311.08,304.55,303.24,295.22,294.46,299.26z"/>
	<path class="st17" d="M292.18,168.14c1.58,7.82,6.84,14.81,13.91,18.48c5.36-3.94,6.47-12.54,2.28-17.71
		C304.18,163.74,295.54,163.05,292.18,168.14z"/>
	<path class="st17" d="M337.89,228.8c1.52,5.51,3.03,11.02,4.55,16.53c1.62,0.07,3.25,0.14,4.87,0.21c4.27-2.44,6.05-8.43,3.79-12.8
		S342.93,226.35,337.89,228.8z"/>
	<path class="st17" d="M282.83,230.19c-2.15,8.62,7.94,17.3,16.38,14.52c8.44-2.78,11.8-14.72,6.63-21.95
		S286.94,213.69,282.83,230.19z"/>
	<path class="st17" d="M415.06,259.97c-2.24,9.36-1.43,19.43,2.29,28.32C424.07,279.94,421.43,265.82,415.06,259.97z"/>
	<path class="st17" d="M360.32,272.24c-0.4,9.43,3.52,18.96,10.44,25.37C379.39,286.2,377.65,268.27,360.32,272.24z"/>
	<path class="st17" d="M438.66,163.26c-6.45,6.44-11.47,14.31-14.61,22.87c3.37,3.91,8.87,5.85,13.95,4.93
		C437.55,183.81,431.81,177.21,438.66,163.26z"/>
	<path class="st17" d="M367.19,170.86c0.79,5.83,1.69,11.93,5.17,16.66s10.45,7.47,15.43,4.34c4.85-3.06,5.54-10.25,3.03-15.41
		C388.31,171.28,383.51,167.69,367.19,170.86z"/>
	<path class="st17" d="M457.51,254.2c-1.3,6.26-2.61,12.52-3.91,18.78c1.52,0.99,3.05,1.97,4.57,2.96
		c7.61-4.84,12-14.31,10.77-23.24C465.08,250.5,458.31,250.34,457.51,254.2z"/>
	<path class="st17" d="M520.82,201.05c-3.87,8.59-4.84,18.46-2.71,27.64c6.45-3.33,10.84-10.34,11.01-17.6
		C529.29,203.83,523.39,195.35,520.82,201.05z"/>
	<path class="st17" d="M545.21,151.84c-8.24,5.09-15.09,12.39-19.65,20.93C536.9,175.28,548.92,163.9,545.21,151.84z"/>
	<path class="st17" d="M489.77,172.27c-0.04,8.75-0.08,17.51-0.13,26.26C496.2,194.08,498.53,184.4,489.77,172.27z"/>
	<path class="st17" d="M509.33,320.69c-3.89,6.41-5.19,14.35-3.55,21.67C515.17,338.88,517.11,323.85,509.33,320.69z"/>
	<path class="st17" d="M586.09,182.91c-5.07,7.41,2.16,18.17,10.96,19.96c8.8,1.79,17.62-2.27,25.69-6.22
		c1.73-9.45-2.71-19.73-10.77-24.94C603.9,166.49,596,168.42,586.09,182.91z"/>
	<path class="st17" d="M625.86,125.3c6.18-2.32,12.36-4.64,18.54-6.95C642.05,116.23,639.69,114.12,625.86,125.3z"/>
	<path class="st17" d="M661.03,184.57c2.05,4.53,4.11,9.07,6.16,13.6c7.68-2.11,13.95-8.72,15.65-16.5
		C677.37,176.76,669.25,175,661.03,184.57z"/>
	<path class="st17" d="M646.48,267.27c7.11,2.92,16.28-1.61,18.27-9.03C666.74,250.82,661.08,242.3,646.48,267.27z"/>
	<path class="st17" d="M711,234.54c-0.42,6.19-0.84,12.37-1.25,18.56c10.16-1.94,17.24-13.67,14.21-23.57
		C721.27,229.33,718.58,229.12,711,234.54z"/>
	<path class="st17" d="M785.6,251.73c-5.73,11.36-7.27,24.77-4.28,37.13c8.2-1.51,15.13-8.44,16.65-16.64
		C799.49,264.01,795.49,255.06,785.6,251.73z"/>
	<path class="st17" d="M766.17,340.61c-0.87,8.93,2.9,18.18,9.77,23.96C785.16,350.48,777.83,328.6,766.17,340.61z"/>
	<path class="st17" d="M841.64,307.78c-5.8,11.44-8.4,24.47-7.43,37.26c9.66-0.13,18.8-7.28,21.26-16.62
		C857.94,319.08,853.51,308.36,841.64,307.78z"/>
	<path class="st17" d="M889.03,327.18c-1.59,12.24-0.53,24.82,3.11,36.61C901.52,357.01,906.14,344.26,889.03,327.18z"/>
	<path class="st17" d="M874.89,402.48c-4.49,11.54-8.99,23.07-13.48,34.61c6.01,1.73,12.97-0.64,16.68-5.66
		C881.8,426.4,882.02,419.05,874.89,402.48z"/>
	<path class="st17" d="M814.6,477.08c-3.28,11.67-4.07,24.02-2.32,36.01c4.83,1.95,10.36,2.82,15.22,0.96
		c4.86-1.86,8.67-7.02,7.73-12.14S827.54,493.33,814.6,477.08z"/>
	<path class="st17" d="M758.96,512.15c-0.92,8.8,2.7,18.39,10.28,22.96s18.94,2.53,23.17-5.24
		C796.65,522.11,790.62,510.44,758.96,512.15z"/>
	<path class="st17" d="M902.53,460.02c-0.48,11.28,2.7,22.69,8.96,32.1C920.02,483.56,921.35,468.78,902.53,460.02z"/>
	<path class="st17" d="M926.73,385.67c-2.18,9.53-4.36,19.06-6.54,28.58c8.16,0.77,16.35-5.6,17.62-13.69
		C939.07,392.46,933.2,383.9,926.73,385.67z"/>
	<path class="st17" d="M746.48,389.33c0.28,13.38,4.35,26.66,11.62,37.91c8.19-2.26,14.52-10.09,15.01-18.57
		C773.59,400.18,768.2,391.67,746.48,389.33z"/>
	<path class="st17" d="M842.84,367.55c-6.46,8.29-10.01,18.82-9.87,29.33c9.21-0.39,17.63-7.85,19.13-16.95
		C853.61,370.83,847.95,361,842.84,367.55z"/>
	<path class="st17" d="M630.7,341.74c5.44,13.07,14.58,24.57,26.08,32.83C666.71,360.9,660.04,338.54,630.7,341.74z"/>
	<path class="st17" d="M502.94,378.35c0.48,17.22,6.16,34.27,16.1,48.34c9.62,1.17,15.02-12.73,10.17-21.12
		C524.34,397.19,514.28,393.63,502.94,378.35z"/>
	<path class="st17" d="M339.79,365.23c-9.13,10.58-6.83,28.92,4.63,36.92c11.46,8,29.46,3.84,36.25-8.38
		C376.43,387.18,367.85,383.72,339.79,365.23z"/>
	<path class="st17" d="M741.47,161.41c5.4,9.73,10.81,19.45,16.21,29.18C753.3,185.16,748.91,179.74,741.47,161.41z"/>
	<path class="st17" d="M557.63,225.89c8.68,14.85,19.94,28.19,33.12,39.24C592.64,253.14,590.81,240.58,557.63,225.89z"/>
	<path class="st17" d="M822.28,212.63c-1.66,21.36,1.82,43.11,10.06,62.89c11.28-4.87,18.76-17.36,17.74-29.6
		C849.05,233.68,839.59,222.61,822.28,212.63z"/>
	<path class="st18" d="M391.58,588.46c5.4,80.62,5.58,161.6,0.24,241.92c36.23,17.64,79.44,20.4,117.63,7.53
		c17.71-81.55,41.93-161.68,71.11-242.87c65.7-41.73,131.41-83.47,197.11-125.2c23.57-14.97,50.17-44.08,32.98-66.08
		c-45.47,27.26-90.94,54.51-136.42,81.77c34.79-61.99,60.16-129.25,74.98-198.77c-10.31,0.02-20.62,0.04-30.93,0.06
		c-2.5,79.08-44.86,155.88-110.4,200.19c0.46-55.28,0.93-110.57,1.39-165.85c0.11-13.11-0.07-27.2-7.65-37.9
		s-25.58-14.74-33.52-4.31c-6.93,45.53-13.86,91.06-20.8,136.59c-4.34,28.49-17.12,64.58-45.93,63.93
		c-23.15-0.53-37.19-26.34-40.45-49.26c-3.26-22.92-1.23-47.83-13.5-67.47c-12.27-19.64-47.83-25.08-55.62-3.28
		c9.7,19.24,19.64,39.48,19.12,61.01c-0.51,21.54-15.34,44.38-36.82,45.98c-33.88,2.52-48.07-40.69-63.33-71.04
		c-15.9-31.63-47.38-57.76-82.78-57.47s-69.47,34.92-61.08,69.31c5.69,23.34,26.93,39.01,46.7,52.65
		C269.83,498.65,326.03,537.4,391.58,588.46z"/>
	<path class="st19" d="M441.65,535.58c-10.43,6.28-20.85,12.56-31.28,18.83c-2.71,10.54,8.15,20.61,19,21.38
		c10.85,0.78,21.05-4.72,30.54-10.05c-5.54,5.42-2.47,16.18,4.75,18.99c7.22,2.81,15.97-1.69,19.19-8.73s1.57-15.66-2.8-22.05
		C473.05,542.27,456,537.9,441.65,535.58z"/>
	<path class="st19" d="M556.98,485.45c-3.59,9.99-7.19,19.97-10.78,29.96c8.11-0.15,16.47-1.72,23.1-6.4
		c6.63-4.68,11.12-12.97,9.56-20.93S562.52,470.04,556.98,485.45z"/>
	<path class="st19" d="M312.98,474.8c2.45,7.74,5.27,15.74,11.13,21.36c5.86,5.62,15.67,7.96,22.16,3.08
		c8.2-6.16,6-20.01-1.64-26.85S326.18,463.82,312.98,474.8z"/>
	<path class="st19" d="M459.93,680.62c-7.26,19.27-11.89,39.53-13.73,60.04c23.91-0.02,47.79-6.09,68.81-17.5
		C506.68,703.46,486.23,689.52,459.93,680.62z"/>
</g>
<g id="Layer_5">
	<path class="st20" d="M186.07,314.42c4.15,58.53,4.98,117.29,2.46,175.91c40.55,19.61,63.48,62.24,90.81,98.04
		C342.41,671,440.64,724.88,543.8,737.64c103.16,12.76,210.11-14.81,296.57-72.52c30.34-20.25,59.17-45.21,74.28-78.41
		c16.43-36.1,14.81-77.48,12.87-117.1c-1.93-39.36-3.85-78.71-5.78-118.07c-0.88-17.95-3.22-38.62-18.2-48.55
		c-11.27-7.48-25.92-6.15-39.38-7.43c-25.78-2.46-49.25-15.24-72.34-26.97c-76.15-38.72-157.34-68.91-241.88-81.14
		c-84.54-12.23-172.73-5.92-251.99,25.94C257.1,229.8,216.8,255.16,186.07,314.42z"/>
	<path class="st21" d="M192.92,333.12c-17.81,26.64-14.56,63.33,0.87,91.41s41.14,49.01,67.61,67.07
		c43.35,29.57,90.35,53.39,137.96,75.46c68.89,31.93,140.4,60.67,215.73,70.2s155.57-1.74,218.36-44.43s104.29-120.21,91.89-195.12
		c-3.82-23.08-15.26-48.06-37.65-54.85c-18.01-5.46-36.99,2.6-54.5,9.52c-103.58,40.94-218.65,45.63-329.06,30.97
		c-110.41-14.66-217.38-47.86-323.74-80.93C185.48,307.81,190.57,313.21,192.92,333.12z"/>
	<path class="st22" d="M184.11,315.63c12.32,29.38,24.64,58.77,36.96,88.15c4.15,9.9,8.95,20.53,18.39,25.63
		c10.6,5.72,24.25,2.44,33.85-4.83c9.6-7.28,16.04-17.86,22.25-28.19c14.51,43.21,60.63,73.5,106.05,69.63
		c7.3-0.62,14.99-1.96,21.68,1.01c13.46,5.97,14.42,24.11,18.44,38.28c6.13,21.63,24.6,39.29,46.49,44.45s46.3-2.4,61.44-19.02
		c12.97-14.23,21.74-35.79,40.75-38.81c21.21-3.37,36.56,18.83,47.34,37.41c10.78,18.58,30,39.18,49.91,31.11
		c22.21-9,20.12-44.47,40.27-57.42c14.98-9.63,34.42-2.43,51.87,1.09s41.38-1.91,42.8-19.65c4.17,12.36,8.61,25.17,17.69,34.54
		c9.08,9.37,24.25,14.21,35.49,7.58c11.79-6.96,14.44-22.57,15.87-36.18c4.57-43.49,9.14-86.97,13.71-130.46
		c2.24-21.35,0.78-49-19.46-56.15c-19.11-6.75-36.94,11.13-52.43,24.2c-37.77,31.86-89.36,40.99-138.54,45.78
		C521.91,390.58,345.13,367.54,184.11,315.63z"/>
	<path class="st22" d="M551.77,285.71c-25.58,24.08-63.2,34.68-97.59,27.5c-10.83-2.26-21.62-6.37-29.6-14.04
		s-12.63-19.44-9.68-30.1c4.71-16.99,24.91-23.87,42.39-26.1c18.03-2.3,36.33-2.51,54.42-0.61c13.02,1.37,26.86,4.3,35.86,13.81
		c9,9.51,9.82,27.47,2.42,34.72c26.42,42.22,39.32,92.77,36.37,142.49c89.74-15.98,177.13-45.04,258.57-85.98
		c14.63-7.35,31.58-21.01,25.89-36.37c-2.25-6.07-7.66-10.32-12.88-14.16C716.76,193.03,530.99,152.11,359.24,187.02
		c-57.94,11.78-116.13,32.94-158.22,74.45c-17.85,17.6-32.98,44.59-21.2,66.71c13.2,24.79,47.92,24.09,75.98,25.39
		c68.02,3.14,130.05,37.45,194.76,58.63s143.55,26.49,191.17-22.66"/>
	<path class="st23" d="M201.56,297.35c12.75-20.48,43.75-20.83,64.91-9.25c21.16,11.58,36.33,31.46,54.97,46.77
		c35.72,29.33,83.05,40.86,129.18,43.67s92.38-2.18,138.59-1.71c61.06,0.62,127.98,9.29,177.97-25.79
		c12.85-9.01,23.84-20.56,37.18-28.82c13.34-8.26,30.4-12.93,44.74-6.55c22.61,10.06,26.13,43.36,12.51,64.02
		s-38.15,31.07-61.82,38.3c-93.67,28.62-194.28,24.98-291.23,10.98c-56.66-8.18-113.11-19.89-166.48-40.6
		C288.08,367.4,237.83,337.42,201.56,297.35z"/>
	<path class="st23" d="M412.36,272.31c-0.48-5.69,3.84-11.39,9.45-12.46c5.61-1.07,11.73,2.63,13.39,8.1
		c0.43,1.41,0.6,2.94,1.4,4.18c2.88,4.48,10.18,1.18,12.77-3.47c2.59-4.65,3.71-10.65,8.31-13.33c5.77-3.37,13.01,0.73,17.89,5.3
		c4.88,4.57,10.02,10.16,16.7,10.08c6.4-0.07,11.73-5.48,18.11-5.9c11.05-0.72,18.67,13.28,29.74,13.17
		c7.71-0.08,13.88-7.85,13.85-15.56s-5.06-14.74-11.48-19.01c-6.42-4.27-14.08-6.2-21.65-7.67c-21.31-4.14-43.68-5.11-64.49,1.07
		S416.42,257.03,412.36,272.31z"/>
	<path class="st24" d="M288.97,232.1c-2.97,10.87-3.53,22.4-1.62,33.5c11.22,1.99,23.16-6.98,24.35-18.31
		S303.11,224.69,288.97,232.1z"/>
	<path class="st24" d="M246.34,323.76c-1.7,13.37-0.1,27.16,4.62,39.79c12.3-13.47,15.82-34.29,8.64-51.06
		C256.64,314.13,253.69,315.78,246.34,323.76z"/>
	<path class="st24" d="M330.53,343.33c-2.32,15.05-2.46,30.44-0.42,45.53C342.87,378.75,345.28,357.92,330.53,343.33z"/>
	<path class="st24" d="M373.96,295.64c2.37,4.28,4.75,8.56,7.12,12.84C387.09,294.96,382.78,277.62,373.96,295.64z"/>
	<path class="st24" d="M488.92,359.51c-4.19,12.78-5.9,26.37-5.01,39.79c10.53-2,19.2-11.46,20.27-22.13
		C505.25,366.5,498.65,355.51,488.92,359.51z"/>
	<path class="st24" d="M524.09,442.23c-4.34,9.5-4.98,20.63-1.75,30.56c7.55-3.3,13.04-10.9,13.8-19.11S532.89,437,524.09,442.23z"
		/>
	<path class="st24" d="M636.37,397.82c0.98,9.97,4.14,19.71,9.19,28.35C648.98,410.43,644.82,393.22,636.37,397.82z"/>
	<path class="st24" d="M645.69,303.33c-3.01,9.69-3.73,20.08-2.08,30.09c5.74-2.75,9.7-8.89,9.84-15.25S649.9,305.51,645.69,303.33z
		"/>
	<path class="st24" d="M576.92,334.97c-4.96,9.01-5.69,20.22-1.94,29.8c8.49-3.77,14.22-13.01,13.83-22.29
		C588.41,333.21,582.52,324.79,576.92,334.97z"/>
	<path class="st24" d="M613.25,209.63c1.96,7.49,3.93,14.98,5.89,22.47C620.08,226.52,619.19,220.65,613.25,209.63z"/>
	<path class="st24" d="M509.49,188.3c2.79,9.26,8.44,17.63,15.98,23.69C524.66,201.73,519.37,191.89,509.49,188.3z"/>
	<path class="st24" d="M412.54,186.68c-1.59,11.21,0.41,22.91,5.65,32.96C422.93,209.19,416.94,195.29,412.54,186.68z"/>
	<path class="st24" d="M370.01,203.65c0.59,9.36,5.82,18.32,13.68,23.43C391.24,219.99,388.92,205.44,370.01,203.65z"/>
	<path class="st24" d="M692.96,266.83c-3.05,10.47-1.04,22.3,5.32,31.17c12.55-3.23,20.82-17.91,17.09-30.32
		C711.63,255.28,698.44,248.04,692.96,266.83z"/>
	<path class="st24" d="M773.53,282.71c-8.74,11.77-6.66,30.19,4.49,39.71C786.91,307.14,784.35,286.09,773.53,282.71z"/>
	<path class="st24" d="M726.82,344.59c-7.39,18.45-10.23,38.7-8.23,58.47C736.73,398.51,746.02,373.66,726.82,344.59z"/>
	<path class="st24" d="M823.31,375.22c-5.22,16.89-4.38,35.59,2.34,51.95c12.16-3.41,21.99-14.06,24.41-26.46
		C852.5,388.31,847.4,374.74,823.31,375.22z"/>
	<path class="st24" d="M774.52,411.85c-5.07,17.44-4.96,36.35,0.32,53.73c10.41-0.97,19.66-9.46,21.51-19.75
		S792.51,424.35,774.52,411.85z"/>
	<path class="st24" d="M683.22,445.45c-3.44,17.4-1.2,35.87,6.31,51.94C702.73,480.32,703.59,454.74,683.22,445.45z"/>
	<path class="st24" d="M869.22,430.22c-5.71,16.29-5.25,34.66,1.29,50.63c11.27-3.43,20.24-13.52,22.32-25.12
		S890,431.55,869.22,430.22z"/>
</g>
</svg>
